<svg width="114" height="38" viewBox="0 0 114 38" fill="none" xmlns="http://www.w3.org/2000/svg">
<path fill-rule="evenodd" clip-rule="evenodd" d="M27.9835 23.9921C27.9835 20.1077 26.6431 16.7979 23.935 14.0898C21.2543 11.3817 18.0265 10.0687 14.2516 10.0413C9.51931 10.0413 5.93589 12.0109 3.50135 15.8952V0.0570068H0V37.3136H3.50135V32.0889C5.96324 35.9733 9.51931 37.9428 14.2516 37.9428C18.0265 37.9428 21.2817 36.6024 23.935 33.8943C26.6431 31.1589 27.9835 27.8764 27.9835 23.9921ZM21.4185 31.4871C19.3942 33.5114 16.905 34.5235 13.9781 34.5235C11.0512 34.5235 8.56191 33.5114 6.53769 31.4871C4.51346 29.4082 3.50135 26.919 3.50135 23.9921C3.50135 21.0651 4.51346 18.5759 6.53769 16.5517C8.56191 14.4727 11.0512 13.4606 13.9781 13.4606C16.905 13.4606 19.3942 14.4727 21.4185 16.5517C23.4427 18.5759 24.4548 21.0651 24.4548 23.9921C24.4548 26.919 23.4427 29.4082 21.4185 31.4871ZM59.2769 24.1015C59.2769 20.3266 58.0459 17.0167 55.6114 14.2539C53.2042 11.4365 50.0311 10.0687 46.1194 10.0414C42.0163 10.0414 38.7064 11.3817 36.1077 14.0351C33.5091 16.7158 32.2234 19.9984 32.2234 23.9921C32.2234 28.0405 33.5638 31.4051 36.1625 34.0038C38.7611 36.6024 42.153 37.9428 46.3656 37.9428C51.5356 37.9428 55.7208 35.5903 58.0733 31.8154L54.9822 30.01C53.5051 32.7181 50.4688 34.5235 46.4203 34.5235C40.7306 34.5235 36.5181 31.1042 35.8342 25.7428H59.1674C59.1776 25.616 59.1877 25.493 59.1975 25.3743L59.1979 25.3698L59.198 25.3686L59.198 25.3684C59.2408 24.8493 59.2769 24.4123 59.2769 24.1015ZM55.6661 22.3508H35.8342C36.5181 17.0714 40.5665 13.4607 46.0921 13.4607C48.4719 13.4607 50.6055 14.2813 52.4109 15.8131C54.2163 17.345 55.2831 19.5333 55.6661 22.3508ZM72.024 22.1868L72.4036 22.282C76.7929 23.3813 82.063 24.7012 82.063 30.2837C82.063 32.5814 81.1603 34.3868 79.3549 35.8093C77.6043 37.259 75.2518 37.9429 72.4343 37.9429C67.319 37.9429 63.5988 35.4537 62.1764 31.8155L65.158 30.0648C66.1701 32.8276 68.8782 34.5236 72.4343 34.5236C75.8809 34.5236 78.5343 33.1832 78.5343 30.2837C78.5343 27.9039 76.0998 26.5635 73.0634 25.7702L72.6821 25.6746C68.2931 24.5754 63.0244 23.2559 63.0244 17.7007C63.0244 15.5123 63.8724 13.707 65.5683 12.2845C67.319 10.8347 69.5074 10.0962 72.106 10.0962C76.4007 10.0962 79.8747 12.1751 81.4065 15.5123L78.4796 17.2083C77.4675 14.7191 75.3338 13.4881 72.106 13.4881C69.0697 13.4881 66.5257 14.9653 66.5257 17.7007C66.5531 20.0532 69.015 21.3935 72.024 22.1868ZM89.5581 33.9217C92.2936 36.5751 95.6308 37.9155 99.5151 37.9155C103.399 37.9155 106.709 36.6024 109.417 33.9217C112.125 31.2136 113.521 27.9311 113.521 23.9921C113.521 20.0531 112.125 16.7432 109.417 14.0898C106.682 11.3817 103.399 10.0414 99.5151 10.0414C95.6308 10.0414 92.2662 11.3817 89.5581 14.0898C86.85 16.7705 85.5097 20.0531 85.5097 23.9921C85.5097 27.9038 86.85 31.2136 89.5581 33.9217ZM106.955 31.4872C104.931 33.5114 102.442 34.5235 99.5151 34.5235C96.6155 34.5235 94.099 33.5114 92.0747 31.4872C90.0505 29.4083 89.0384 26.919 89.0384 23.9921C89.0384 21.0652 90.0505 18.5759 92.0747 16.5517C94.099 14.4728 96.5882 13.4607 99.5151 13.4607C102.442 13.4607 104.931 14.4728 106.955 16.5517C108.98 18.5759 109.992 21.0652 109.992 23.9921C109.992 26.919 108.98 29.4083 106.955 31.4872Z" fill="#001C3D"/>
</svg>
