<svg width="91" height="90" viewBox="0 0 91 90" fill="none" xmlns="http://www.w3.org/2000/svg">
<rect x="0.641907" width="90" height="90" rx="18" fill="#001C3D"/>
<path d="M58.7669 27H32.5169C31.8207 27 31.153 27.3161 30.6608 27.8787C30.1685 28.4413 29.8919 29.2044 29.8919 30V60C29.8919 60.7956 30.1685 61.5587 30.6608 62.1213C31.153 62.6839 31.8207 63 32.5169 63H58.7669C59.4631 63 60.1308 62.6839 60.6231 62.1213C61.1153 61.5587 61.3919 60.7956 61.3919 60V30C61.3919 29.2044 61.1153 28.4413 60.6231 27.8787C60.1308 27.3161 59.4631 27 58.7669 27Z" stroke="white" stroke-width="3" stroke-linecap="round" stroke-linejoin="round"/>
<path d="M43.0169 52L47.3919 56L54.3919 46M36.8919 36H54.3919M36.8919 44H43.8919" stroke="white" stroke-width="3" stroke-linecap="round" stroke-linejoin="round"/>
</svg>
