<svg width="91" height="90" viewBox="0 0 91 90" fill="none" xmlns="http://www.w3.org/2000/svg">
<rect x="0.641907" width="90" height="90" rx="18" fill="#001C3D"/>
<path d="M38.8919 41.6H52.3919M38.8919 55.2H52.3919M38.8919 48.4H45.6419M32.1419 60.98V29.02C32.1419 28.7495 32.2486 28.49 32.4385 28.2988C32.6283 28.1075 32.8859 28 33.1544 28H52.8172C53.0856 28.0002 53.343 28.1079 53.5327 28.2992L58.8449 33.6508C58.9394 33.7458 59.0142 33.8587 59.0652 33.983C59.1162 34.1073 59.1422 34.2405 59.1419 34.375V60.98C59.1419 61.1139 59.1157 61.2466 59.0648 61.3703C59.0139 61.4941 58.9394 61.6065 58.8453 61.7013C58.7513 61.796 58.6397 61.8711 58.5169 61.9224C58.394 61.9736 58.2624 62 58.1294 62H33.1544C33.0214 62 32.8898 61.9736 32.7669 61.9224C32.6441 61.8711 32.5325 61.796 32.4385 61.7013C32.3444 61.6065 32.2699 61.4941 32.219 61.3703C32.1681 61.2466 32.1419 61.1139 32.1419 60.98Z" stroke="#F9F9F9" stroke-width="3" stroke-linecap="round" stroke-linejoin="round"/>
<path d="M52.3918 28V33.78C52.3918 34.0505 52.4985 34.31 52.6884 34.5012C52.8783 34.6925 53.1358 34.8 53.4044 34.8H59.1418" stroke="#F9F9F9" stroke-width="3" stroke-linecap="round" stroke-linejoin="round"/>
</svg>
