<svg width="80" height="80" viewBox="0 0 80 80" fill="none" xmlns="http://www.w3.org/2000/svg">
<g clip-path="url(#clip0_1091_2573)">
<path d="M77.8736 37.4448L77.8732 37.4444L66.8966 26.5129C66.8966 26.5128 66.8965 26.5128 66.8965 26.5127C65.5889 25.2112 63.4717 25.2139 62.1754 26.5181L62.172 26.5215C61.8619 26.8306 61.6157 27.1979 61.4477 27.6024C61.2797 28.007 61.1933 28.4409 61.1933 28.879C61.1933 29.3172 61.2797 29.751 61.4477 30.1556C61.6157 30.5601 61.8619 30.9275 62.172 31.2365L62.1732 31.2376L69.5863 38.6476L69.5867 38.648C70.4413 39.5033 70.4413 40.86 69.5867 41.7153L69.5863 41.7157L62.2803 49.0184L62.2792 49.0195C61.969 49.3285 61.7229 49.6959 61.5549 50.1004L60.6313 49.717L61.5549 50.1004C61.3869 50.505 61.3004 50.9388 61.3004 51.377C61.3004 51.8152 61.3869 52.249 61.5549 52.6535C61.7228 53.058 61.9689 53.4253 62.279 53.7343C62.9067 54.3594 63.7561 54.7102 64.6413 54.7102C65.5259 54.7102 66.3746 54.3599 67.0022 53.7358L77.8736 37.4448ZM77.8736 37.4448C78.2299 37.7993 78.5129 38.2207 78.7062 38.6848C78.8995 39.149 78.9993 39.6469 79 40.1498C79.0007 40.6527 78.9021 41.1508 78.71 41.6155C78.5179 42.0802 78.2361 42.5023 77.8807 42.8577L67.0037 53.7343L77.8736 37.4448ZM57.465 21.5469L57.4612 21.5507C56.1652 22.8546 54.0494 22.8572 52.742 21.5488L52.7417 21.5485L41.5598 10.3668C41.5597 10.3668 41.5596 10.3667 41.5595 10.3666C40.7756 9.5823 39.5628 9.50694 38.6967 10.1903L38.6505 10.2268L38.6349 10.2424C38.6242 10.2508 38.6074 10.264 38.59 10.2785C38.565 10.2992 38.5305 10.329 38.4927 10.3668L10.4124 38.4511L10.4122 38.4514C9.55761 39.3066 9.55761 40.6634 10.4122 41.5186L10.4125 41.519L38.5016 69.6031C39.3567 70.4588 40.7137 70.4588 41.5687 69.6031L41.5693 69.6026L52.7313 58.414C52.7315 58.4137 52.7318 58.4135 52.7321 58.4132C53.3597 57.7886 54.2088 57.4381 55.0936 57.4381C55.9788 57.4381 56.8282 57.7889 57.4559 58.414L57.456 58.4141C58.7604 59.7126 58.7604 61.83 57.456 63.1284L57.4544 63.1301L42.7089 77.8781C41.9898 78.5966 41.0153 79 39.9994 79C38.9836 79 38.0091 78.5966 37.2899 77.8781L2.12714 42.7147L2.125 42.7126C1.76854 42.3583 1.4856 41.9368 1.29251 41.4725C1.09942 41.0082 1 40.5103 1 40.0073C1 39.5044 1.09942 39.0064 1.29251 38.5421L0.371921 38.1593L1.29251 38.5421C1.4856 38.0778 1.76854 37.6564 2.125 37.3021L2.12714 37.3L37.2992 2.12729L37.2995 2.12702C38.7871 0.638281 41.2207 0.623905 42.7221 2.08717C46.7387 6.09799 49.5773 8.93874 51.229 10.5917L57.4631 16.8307L57.465 16.8326C58.7693 18.1311 58.7693 20.2485 57.465 21.5469ZM34.1762 46.1912C32.5833 44.5985 31.6884 42.4384 31.6884 40.1861C31.6884 37.9338 32.5833 35.7737 34.1762 34.181C35.7692 32.5883 37.9297 31.6935 40.1825 31.6935C42.4354 31.6935 44.5959 32.5883 46.1889 34.181C47.7818 35.7737 48.6767 37.9338 48.6767 40.1861C48.6767 42.4384 47.7818 44.5985 46.1889 46.1912C44.5959 47.7839 42.4354 48.6787 40.1825 48.6787C37.9297 48.6787 35.7692 47.7839 34.1762 46.1912Z" fill="#2750E6" stroke="white" stroke-width="2"/>
</g>
<defs>
<clipPath id="clip0_1091_2573">
<rect width="80" height="80" fill="white"/>
</clipPath>
</defs>
</svg>
