<svg width="80" height="80" viewBox="0 0 80 80" fill="none" xmlns="http://www.w3.org/2000/svg">
<rect width="80" height="80" fill="#F5F5F5"/>
<g id="Desktop - 1" clip-path="url(#clip0_1080_374)">
<rect width="1440" height="5089" transform="translate(-1104 -1352)" fill="white"/>
<g id="Frame 1321314555">
<rect width="1440" height="562" transform="translate(-1104 -310)" fill="white"/>
<g id="Frame 14">
<g id="Frame 13">
<g id="Frame 12">
<g id="ic:baseline-mobile-friendly">
<path id="Vector" d="M30 12.8333H29.5V13.3333V19.5H23.8333V10C23.8333 6.60947 26.6095 3.83333 30 3.83333H63.3333C66.7239 3.83333 69.5 6.60947 69.5 10V70C69.5 73.3905 66.7239 76.1667 63.3333 76.1667H30C26.6095 76.1667 23.8333 73.3905 23.8333 70V60.5H29.5V66.6667V67.1667H30H63.3333H63.8333V66.6667V13.3333V12.8333H63.3333H30ZM23.0131 45.2536L23.3673 45.6077L23.7208 45.253L43.0673 25.841L46.5929 29.3667L23.3333 52.6262L11.3404 40.6333L14.8667 37.1071L23.0131 45.2536Z" fill="#2750E6" stroke="white"/>
</g>
</g>
</g>
</g>
</g>
</g>
<defs>
<clipPath id="clip0_1080_374">
<rect width="1440" height="5089" fill="white" transform="translate(-1104 -1352)"/>
</clipPath>
</defs>
</svg>
