<svg width="80" height="80" viewBox="0 0 80 80" fill="none" xmlns="http://www.w3.org/2000/svg">
<path d="M30 38.3333L36.6667 45L51.6667 30M66.6667 40C66.6667 56.3615 48.8201 68.2613 42.3266 72.0496C41.5887 72.4801 41.2197 72.6954 40.6989 72.8071C40.2948 72.8937 39.7052 72.8937 39.3011 72.8071C38.7803 72.6954 38.4113 72.4801 37.6734 72.0496C31.1799 68.2613 13.3333 56.3615 13.3333 40V24.0587C13.3333 21.3936 13.3333 20.0611 13.7692 18.9157C14.1543 17.9038 14.78 17.0009 15.5922 16.2851C16.5117 15.4748 17.7593 15.0069 20.2547 14.0712L38.1274 7.36892C38.8203 7.10905 39.1668 6.97912 39.5233 6.92761C39.8395 6.88192 40.1606 6.88192 40.4767 6.92761C40.8332 6.97912 41.1797 7.10905 41.8727 7.36892L59.7453 14.0712C62.2407 15.0069 63.4884 15.4748 64.4078 16.2851C65.2201 17.0009 65.8458 17.9038 66.2308 18.9157C66.6667 20.0611 66.6667 21.3936 66.6667 24.0587V40Z" stroke="#2750E6" stroke-width="5" stroke-linecap="round" stroke-linejoin="round"/>
</svg>
